<?xml version="1.0" encoding="UTF-8"?>
<svg width="64" height="64" viewBox="0 0 64 64" xmlns="http://www.w3.org/2000/svg" role="img" aria-label="LinuxBenchHub">
  <title>LinuxBenchHub</title>
  <defs>
    <linearGradient id="lbh-gem-body" x1="50%" y1="0%" x2="50%" y2="100%">
      <stop offset="0%" stop-color="#e2453d"/>
      <stop offset="100%" stop-color="#a8231d"/>
    </linearGradient>
  </defs>

  <polygon points="32,4 56,18 56,46 32,60 8,46 8,18" fill="url(#lbh-gem-body)"/>

  <polygon points="32,4 56,18 32,18" fill="#f55a4d"/>
  <polygon points="32,4 32,18 8,18" fill="#ff8a80"/>
  <polygon points="8,46 32,60 32,46" fill="#7a1a16"/>
  <polygon points="32,46 32,60 56,46" fill="#6b1a16"/>

  <rect x="17" y="38" width="9" height="8" fill="#fff5f3"/>
  <rect x="27.5" y="30" width="9" height="16" fill="#fff5f3"/>
  <rect x="38" y="22" width="9" height="24" fill="#fff5f3"/>

  <polygon points="32,4 56,18 56,46 32,60 8,46 8,18" fill="none" stroke="#3a0a08" stroke-width="1" opacity="0.45"/>
</svg>
